<?xml version="1.0" encoding="UTF-8"?>
<svg width="1024" height="1024" viewBox="0 0 1024 1024" xmlns="http://www.w3.org/2000/svg">
    <linearGradient id="linearGradient1" x1="12" y1="512" x2="692.376102" y2="63.770662" gradientUnits="userSpaceOnUse">
        <stop offset="0" stop-color="#283e51" stop-opacity="1"/>
        <stop offset="1" stop-color="#4b79a1" stop-opacity="1"/>
    </linearGradient>
    <path id="path1" fill="url(#linearGradient1)" fill-rule="evenodd" stroke="none" d="M 1012 512 C 1012 235.857605 788.142395 12 512 12 C 235.85762 12 12 235.857605 12 512 C 12 788.142395 235.85762 1012 512 1012 C 788.142395 1012 1012 788.142395 1012 512 Z"/>
    <path id="path2" fill="#ffffff" fill-rule="evenodd" stroke="none" d="M 674.190918 372.247681 C 703.480225 342.958374 703.480225 295.471008 674.190918 266.181702 C 644.901611 236.892334 597.414185 236.892334 568.124878 266.181702 L 295.888794 538.417786 C 266.599457 567.707092 266.599457 615.194458 295.888794 644.483765 C 325.178101 673.773132 372.665466 673.773132 401.954803 644.483765 Z"/>
    <path id="-" fill="#ffffff" fill-rule="evenodd" stroke="none" d="M 743.20813 639.230469 C 772.497498 609.941162 772.497498 562.453735 743.20813 533.164429 C 713.918823 503.875122 666.431458 503.875122 637.142151 533.164429 L 480.871552 689.435059 C 451.582214 718.724365 451.582214 766.211731 480.871552 795.501038 C 510.160858 824.790405 557.648254 824.790405 586.937561 795.501038 Z"/>
</svg>
