<?xml version="1.0" encoding="UTF-8"?>
<!-- Generated by Pixelmator Pro 3.6.13 -->
<svg width="1024" height="1024" viewBox="0 0 1024 1024" xmlns="http://www.w3.org/2000/svg">
    <g id="g1">
        <linearGradient id="linearGradient1" x1="62.978982" y1="604.940388" x2="646.261435" y2="264.544331" gradientUnits="userSpaceOnUse" gradientTransform="matrix(0.990023 -0.140904 0.140904 0.990023 -80.333684 75.307395)">
            <stop offset="0" stop-color="#e53935" stop-opacity="1"/>
            <stop offset="1" stop-color="#e35d5b" stop-opacity="1"/>
        </linearGradient>
        <path id="red" fill="url(#linearGradient1)" fill-rule="evenodd" stroke="none" d="M 915.996582 544.542297 C 886.447754 336.925415 672.496521 195.65979 438.123108 229.016724 C 203.749741 262.373657 37.706635 457.721619 67.255478 665.33844 C 96.804329 872.955383 310.755585 1014.220947 545.128967 980.864014 C 779.50238 947.50708 945.545471 752.15918 915.996582 544.542297 Z"/>
        <linearGradient id="linearGradient2" x1="49.909678" y1="381.095476" x2="694.219458" y2="69.666796" gradientUnits="userSpaceOnUse" gradientTransform="matrix(0.999208 -0.03979 0.03979 0.999208 -14.749171 21.127915)">
            <stop offset="0" stop-color="#76b852" stop-opacity="1"/>
            <stop offset="1" stop-color="#8dc26f" stop-opacity="1"/>
        </linearGradient>
        <path id="---4" fill="url(#linearGradient2)" fill-rule="evenodd" stroke="none" d="M 588.984619 384.37207 C 563.541016 486.820557 532.219543 687.772278 646.680969 708.612 C 656.28302 710.360352 666.602722 708.371521 674.031006 701.617371 C 738.165466 643.303833 757.939087 351.883118 757.939087 351.883118 C 757.939087 351.883118 794.855835 818.272888 900.976318 694.050537 C 927.512207 662.987427 955.527344 591.389038 982.984985 467.471863 C 1008.018372 354.459656 995.423218 297.109741 965.702881 266.835876 C 895.761658 195.591553 682.859131 256.892273 682.859131 256.892273 C 614.664246 185.227661 559.979004 132.891174 518.015747 97.877197 C 463.741791 52.592041 429.486603 34.637268 413.70639 38.051514 C 364.681763 48.65863 466.03006 226.021973 466.03006 226.021973 C 367.285889 121.416016 262.282654 44.996277 174.841492 62.730896 C 98.569908 78.19989 41.70145 162.947937 48.565395 356.445129 C 52.505989 467.379639 67.617722 517.831909 89.527473 528.311462 C 161.09259 562.539551 263.814728 252.53125 278.455292 298.552734 C 326.989777 451.129639 375.533997 524.5448 419.341736 548.65741 C 444.544861 562.529663 466.02182 561.238037 490.416962 545.503174 C 546.28241 509.470154 588.984619 384.37207 588.984619 384.37207 Z"/>
    </g>
</svg>
